<mxfile host="app.diagrams.net" agent="Mozilla/5.0 (Windows NT 10.0; Win64; x64) AppleWebKit/537.36 (KHTML, like Gecko) Chrome/138.0.0.0 Safari/537.36" version="27.2.0">
  <diagram id="C5RBs43oDa-KdzZeNtuy" name="Page-1">
    <mxGraphModel dx="1797" dy="975" grid="1" gridSize="13" guides="1" tooltips="1" connect="1" arrows="1" fold="1" page="1" pageScale="1" pageWidth="827" pageHeight="1169" math="0" shadow="0">
      <root>
        <mxCell id="WIyWlLk6GJQsqaUBKTNV-0" />
        <mxCell id="WIyWlLk6GJQsqaUBKTNV-1" parent="WIyWlLk6GJQsqaUBKTNV-0" />
        <mxCell id="vyWj3N0okevLtlT6nMNN-0" value="Start" style="ellipse;whiteSpace=wrap;html=1;aspect=fixed;fillColor=#d5e8d4;strokeColor=#82b366;fontSize=15;" parent="WIyWlLk6GJQsqaUBKTNV-1" vertex="1">
          <mxGeometry x="326" y="572" width="120" height="60" as="geometry" />
        </mxCell>
        <mxCell id="vyWj3N0okevLtlT6nMNN-1" value="Initialize Peripherals" style="rounded=1;whiteSpace=wrap;html=1;fillColor=#dae8fc;strokeColor=#6c8ebf;fontSize=22;" parent="WIyWlLk6GJQsqaUBKTNV-1" vertex="1">
          <mxGeometry x="286" y="692" width="200" height="60" as="geometry" />
        </mxCell>
        <mxCell id="vyWj3N0okevLtlT6nMNN-2" value="Read Saved PIN from Flash" style="rounded=1;whiteSpace=wrap;html=1;fillColor=#dae8fc;strokeColor=#6c8ebf;fontSize=22;" parent="WIyWlLk6GJQsqaUBKTNV-1" vertex="1">
          <mxGeometry x="286" y="792" width="200" height="60" as="geometry" />
        </mxCell>
        <mxCell id="vyWj3N0okevLtlT6nMNN-3" value="Scan I2C Devices" style="rounded=1;whiteSpace=wrap;html=1;fillColor=#dae8fc;strokeColor=#6c8ebf;fontSize=22;" parent="WIyWlLk6GJQsqaUBKTNV-1" vertex="1">
          <mxGeometry x="286" y="892" width="200" height="60" as="geometry" />
        </mxCell>
        <mxCell id="vyWj3N0okevLtlT6nMNN-4" value="Request IP from ESP32" style="rounded=1;whiteSpace=wrap;html=1;fillColor=#dae8fc;strokeColor=#6c8ebf;fontSize=22;" parent="WIyWlLk6GJQsqaUBKTNV-1" vertex="1">
          <mxGeometry x="286" y="992" width="200" height="60" as="geometry" />
        </mxCell>
        <mxCell id="vyWj3N0okevLtlT6nMNN-5" value="Show System Status" style="rounded=1;whiteSpace=wrap;html=1;fillColor=#dae8fc;strokeColor=#6c8ebf;fontSize=22;" parent="WIyWlLk6GJQsqaUBKTNV-1" vertex="1">
          <mxGeometry x="286" y="1092" width="200" height="60" as="geometry" />
        </mxCell>
        <mxCell id="vyWj3N0okevLtlT6nMNN-7" value="Is A&amp;nbsp;&lt;div&gt;pressed&lt;/div&gt;" style="rhombus;whiteSpace=wrap;html=1;fillColor=#fff2cc;strokeColor=#d6b656;fontSize=15;" parent="WIyWlLk6GJQsqaUBKTNV-1" vertex="1">
          <mxGeometry x="620" y="730" width="120" height="60" as="geometry" />
        </mxCell>
        <mxCell id="vyWj3N0okevLtlT6nMNN-8" value="Check PIN" style="rounded=1;whiteSpace=wrap;html=1;fillColor=#dae8fc;strokeColor=#6c8ebf;fontSize=22;" parent="WIyWlLk6GJQsqaUBKTNV-1" vertex="1">
          <mxGeometry x="580" y="832" width="200" height="60" as="geometry" />
        </mxCell>
        <mxCell id="vyWj3N0okevLtlT6nMNN-9" value="Check Sensors&amp;nbsp;&lt;br&gt;(PIR, reed)" style="rounded=1;whiteSpace=wrap;html=1;fillColor=#dae8fc;strokeColor=#6c8ebf;fontSize=15;" parent="WIyWlLk6GJQsqaUBKTNV-1" vertex="1">
          <mxGeometry x="880" y="808" width="200" height="60" as="geometry" />
        </mxCell>
        <mxCell id="qFwq5Oa89XvJzUuIYmLf-39" style="edgeStyle=orthogonalEdgeStyle;rounded=0;orthogonalLoop=1;jettySize=auto;html=1;exitX=0.5;exitY=1;exitDx=0;exitDy=0;entryX=0.5;entryY=0;entryDx=0;entryDy=0;fontSize=15;" edge="1" parent="WIyWlLk6GJQsqaUBKTNV-1" source="vyWj3N0okevLtlT6nMNN-12" target="qFwq5Oa89XvJzUuIYmLf-38">
          <mxGeometry relative="1" as="geometry" />
        </mxCell>
        <mxCell id="vyWj3N0okevLtlT6nMNN-12" value="Alarm !" style="rounded=1;whiteSpace=wrap;html=1;fillColor=#dae8fc;strokeColor=#6c8ebf;fontSize=22;" parent="WIyWlLk6GJQsqaUBKTNV-1" vertex="1">
          <mxGeometry x="880" y="990" width="200" height="60" as="geometry" />
        </mxCell>
        <mxCell id="vyWj3N0okevLtlT6nMNN-14" style="fontSize=15;" parent="WIyWlLk6GJQsqaUBKTNV-1" source="vyWj3N0okevLtlT6nMNN-0" target="vyWj3N0okevLtlT6nMNN-1" edge="1">
          <mxGeometry relative="1" as="geometry" />
        </mxCell>
        <mxCell id="vyWj3N0okevLtlT6nMNN-15" style="fontSize=15;" parent="WIyWlLk6GJQsqaUBKTNV-1" source="vyWj3N0okevLtlT6nMNN-1" target="vyWj3N0okevLtlT6nMNN-2" edge="1">
          <mxGeometry relative="1" as="geometry" />
        </mxCell>
        <mxCell id="vyWj3N0okevLtlT6nMNN-16" style="fontSize=15;" parent="WIyWlLk6GJQsqaUBKTNV-1" source="vyWj3N0okevLtlT6nMNN-2" target="vyWj3N0okevLtlT6nMNN-3" edge="1">
          <mxGeometry relative="1" as="geometry" />
        </mxCell>
        <mxCell id="vyWj3N0okevLtlT6nMNN-17" style="fontSize=15;" parent="WIyWlLk6GJQsqaUBKTNV-1" source="vyWj3N0okevLtlT6nMNN-3" target="vyWj3N0okevLtlT6nMNN-4" edge="1">
          <mxGeometry relative="1" as="geometry" />
        </mxCell>
        <mxCell id="vyWj3N0okevLtlT6nMNN-18" style="fontSize=15;" parent="WIyWlLk6GJQsqaUBKTNV-1" source="vyWj3N0okevLtlT6nMNN-4" target="vyWj3N0okevLtlT6nMNN-5" edge="1">
          <mxGeometry relative="1" as="geometry" />
        </mxCell>
        <mxCell id="vyWj3N0okevLtlT6nMNN-19" style="exitX=0.5;exitY=1;exitDx=0;exitDy=0;entryX=0.5;entryY=0;entryDx=0;entryDy=0;fontSize=15;" parent="WIyWlLk6GJQsqaUBKTNV-1" source="vyWj3N0okevLtlT6nMNN-5" edge="1">
          <mxGeometry relative="1" as="geometry">
            <mxPoint x="350" y="1213.7" as="sourcePoint" />
            <mxPoint x="650" y="630" as="targetPoint" />
            <Array as="points">
              <mxPoint x="386" y="1183" />
              <mxPoint x="540" y="1183" />
              <mxPoint x="540" y="610" />
              <mxPoint x="650" y="610" />
            </Array>
          </mxGeometry>
        </mxCell>
        <mxCell id="vyWj3N0okevLtlT6nMNN-20" style="fontSize=15;" parent="WIyWlLk6GJQsqaUBKTNV-1" edge="1">
          <mxGeometry relative="1" as="geometry">
            <mxPoint x="679.31" y="690" as="sourcePoint" />
            <mxPoint x="679.31" y="730" as="targetPoint" />
            <Array as="points">
              <mxPoint x="679.31" y="700" />
            </Array>
          </mxGeometry>
        </mxCell>
        <mxCell id="vyWj3N0okevLtlT6nMNN-21" style="entryX=0.5;entryY=0;entryDx=0;entryDy=0;fontSize=15;" parent="WIyWlLk6GJQsqaUBKTNV-1" source="vyWj3N0okevLtlT6nMNN-7" target="vyWj3N0okevLtlT6nMNN-8" edge="1">
          <mxGeometry relative="1" as="geometry">
            <mxPoint x="680" y="822" as="targetPoint" />
          </mxGeometry>
        </mxCell>
        <mxCell id="vyWj3N0okevLtlT6nMNN-22" style="exitX=0.5;exitY=1;exitDx=0;exitDy=0;entryX=0.5;entryY=0;entryDx=0;entryDy=0;fontSize=15;" parent="WIyWlLk6GJQsqaUBKTNV-1" source="vyWj3N0okevLtlT6nMNN-8" target="qFwq5Oa89XvJzUuIYmLf-3" edge="1">
          <mxGeometry relative="1" as="geometry">
            <mxPoint x="930" y="812" as="targetPoint" />
          </mxGeometry>
        </mxCell>
        <mxCell id="vyWj3N0okevLtlT6nMNN-23" style="fontSize=15;" parent="WIyWlLk6GJQsqaUBKTNV-1" source="vyWj3N0okevLtlT6nMNN-9" edge="1">
          <mxGeometry relative="1" as="geometry">
            <mxPoint x="980" y="908" as="targetPoint" />
          </mxGeometry>
        </mxCell>
        <mxCell id="vyWj3N0okevLtlT6nMNN-24" style="fontSize=15;entryX=0.5;entryY=0;entryDx=0;entryDy=0;" parent="WIyWlLk6GJQsqaUBKTNV-1" edge="1" target="vyWj3N0okevLtlT6nMNN-12">
          <mxGeometry relative="1" as="geometry">
            <mxPoint x="980" y="1008" as="targetPoint" />
            <mxPoint x="980" y="968" as="sourcePoint" />
          </mxGeometry>
        </mxCell>
        <mxCell id="vyWj3N0okevLtlT6nMNN-27" style="exitX=0;exitY=0.5;exitDx=0;exitDy=0;fontSize=15;" parent="WIyWlLk6GJQsqaUBKTNV-1" edge="1" source="vyWj3N0okevLtlT6nMNN-7">
          <mxGeometry relative="1" as="geometry">
            <mxPoint x="720.24" y="992" as="sourcePoint" />
            <mxPoint x="540" y="760" as="targetPoint" />
            <Array as="points" />
          </mxGeometry>
        </mxCell>
        <mxCell id="QjfyHZzFQtqNt90tGOD8-0" value="Scan Keypad" style="rounded=1;whiteSpace=wrap;html=1;fillColor=#dae8fc;strokeColor=#6c8ebf;fontSize=15;" parent="WIyWlLk6GJQsqaUBKTNV-1" vertex="1">
          <mxGeometry x="590" y="630" width="200" height="60" as="geometry" />
        </mxCell>
        <mxCell id="qFwq5Oa89XvJzUuIYmLf-0" value="yes" style="text;html=1;align=center;verticalAlign=middle;resizable=0;points=[];autosize=1;strokeColor=none;fillColor=none;fontSize=15;" vertex="1" parent="WIyWlLk6GJQsqaUBKTNV-1">
          <mxGeometry x="674" y="786" width="52" height="39" as="geometry" />
        </mxCell>
        <mxCell id="qFwq5Oa89XvJzUuIYmLf-1" value="no" style="text;html=1;align=center;verticalAlign=middle;resizable=0;points=[];autosize=1;strokeColor=none;fillColor=none;fontSize=15;" vertex="1" parent="WIyWlLk6GJQsqaUBKTNV-1">
          <mxGeometry x="591" y="726" width="39" height="39" as="geometry" />
        </mxCell>
        <mxCell id="qFwq5Oa89XvJzUuIYmLf-8" style="edgeStyle=orthogonalEdgeStyle;rounded=0;orthogonalLoop=1;jettySize=auto;html=1;exitX=0.5;exitY=1;exitDx=0;exitDy=0;entryX=0.5;entryY=0;entryDx=0;entryDy=0;fontSize=15;" edge="1" parent="WIyWlLk6GJQsqaUBKTNV-1" source="qFwq5Oa89XvJzUuIYmLf-3" target="qFwq5Oa89XvJzUuIYmLf-4">
          <mxGeometry relative="1" as="geometry" />
        </mxCell>
        <mxCell id="qFwq5Oa89XvJzUuIYmLf-13" value="No" style="edgeLabel;html=1;align=center;verticalAlign=middle;resizable=0;points=[];fontSize=15;" vertex="1" connectable="0" parent="qFwq5Oa89XvJzUuIYmLf-8">
          <mxGeometry x="-0.2402" y="4" relative="1" as="geometry">
            <mxPoint x="-14" y="-1" as="offset" />
          </mxGeometry>
        </mxCell>
        <mxCell id="qFwq5Oa89XvJzUuIYmLf-24" style="edgeStyle=orthogonalEdgeStyle;rounded=0;orthogonalLoop=1;jettySize=auto;html=1;exitX=1;exitY=0.5;exitDx=0;exitDy=0;entryX=0;entryY=0.5;entryDx=0;entryDy=0;fontSize=15;" edge="1" parent="WIyWlLk6GJQsqaUBKTNV-1" source="qFwq5Oa89XvJzUuIYmLf-3" target="qFwq5Oa89XvJzUuIYmLf-26">
          <mxGeometry relative="1" as="geometry">
            <mxPoint x="850" y="640" as="targetPoint" />
          </mxGeometry>
        </mxCell>
        <mxCell id="qFwq5Oa89XvJzUuIYmLf-3" value="Is pin&amp;nbsp;&lt;div&gt;correct&lt;/div&gt;" style="rhombus;whiteSpace=wrap;html=1;fillColor=#fff2cc;strokeColor=#d6b656;fontSize=15;" vertex="1" parent="WIyWlLk6GJQsqaUBKTNV-1">
          <mxGeometry x="620" y="922" width="120" height="60" as="geometry" />
        </mxCell>
        <mxCell id="qFwq5Oa89XvJzUuIYmLf-12" style="edgeStyle=orthogonalEdgeStyle;rounded=0;orthogonalLoop=1;jettySize=auto;html=1;exitX=0.5;exitY=1;exitDx=0;exitDy=0;entryX=0.5;entryY=0;entryDx=0;entryDy=0;fontSize=15;" edge="1" parent="WIyWlLk6GJQsqaUBKTNV-1" source="qFwq5Oa89XvJzUuIYmLf-4" target="qFwq5Oa89XvJzUuIYmLf-5">
          <mxGeometry relative="1" as="geometry" />
        </mxCell>
        <mxCell id="qFwq5Oa89XvJzUuIYmLf-15" style="edgeStyle=orthogonalEdgeStyle;rounded=0;orthogonalLoop=1;jettySize=auto;html=1;exitX=0;exitY=0.5;exitDx=0;exitDy=0;fontSize=15;" edge="1" parent="WIyWlLk6GJQsqaUBKTNV-1" source="qFwq5Oa89XvJzUuIYmLf-4">
          <mxGeometry relative="1" as="geometry">
            <mxPoint x="560" y="1042" as="targetPoint" />
          </mxGeometry>
        </mxCell>
        <mxCell id="qFwq5Oa89XvJzUuIYmLf-4" value="More than&amp;nbsp;&lt;div&gt;3 errors&lt;/div&gt;" style="rhombus;whiteSpace=wrap;html=1;fillColor=#fff2cc;strokeColor=#d6b656;fontSize=15;" vertex="1" parent="WIyWlLk6GJQsqaUBKTNV-1">
          <mxGeometry x="620" y="1012" width="120" height="60" as="geometry" />
        </mxCell>
        <mxCell id="qFwq5Oa89XvJzUuIYmLf-14" style="edgeStyle=orthogonalEdgeStyle;rounded=0;orthogonalLoop=1;jettySize=auto;html=1;exitX=0;exitY=0.5;exitDx=0;exitDy=0;entryX=0;entryY=0.5;entryDx=0;entryDy=0;fontSize=15;" edge="1" parent="WIyWlLk6GJQsqaUBKTNV-1" source="qFwq5Oa89XvJzUuIYmLf-5" target="vyWj3N0okevLtlT6nMNN-8">
          <mxGeometry relative="1" as="geometry" />
        </mxCell>
        <mxCell id="qFwq5Oa89XvJzUuIYmLf-5" value="WAIT for 30s&amp;nbsp;" style="rounded=1;whiteSpace=wrap;html=1;fillColor=#dae8fc;strokeColor=#6c8ebf;fontSize=22;" vertex="1" parent="WIyWlLk6GJQsqaUBKTNV-1">
          <mxGeometry x="580" y="1092" width="200" height="60" as="geometry" />
        </mxCell>
        <mxCell id="qFwq5Oa89XvJzUuIYmLf-41" style="edgeStyle=orthogonalEdgeStyle;rounded=0;orthogonalLoop=1;jettySize=auto;html=1;exitX=1;exitY=0.5;exitDx=0;exitDy=0;fontSize=15;" edge="1" parent="WIyWlLk6GJQsqaUBKTNV-1" source="qFwq5Oa89XvJzUuIYmLf-6">
          <mxGeometry relative="1" as="geometry">
            <mxPoint x="980" y="1066" as="targetPoint" />
            <Array as="points">
              <mxPoint x="1120" y="938" />
              <mxPoint x="1120" y="1066" />
            </Array>
          </mxGeometry>
        </mxCell>
        <mxCell id="qFwq5Oa89XvJzUuIYmLf-6" value="Are sensors&amp;nbsp;&lt;div&gt;triggered&lt;/div&gt;" style="rhombus;whiteSpace=wrap;html=1;fillColor=#fff2cc;strokeColor=#d6b656;fontSize=15;" vertex="1" parent="WIyWlLk6GJQsqaUBKTNV-1">
          <mxGeometry x="920" y="908" width="120" height="60" as="geometry" />
        </mxCell>
        <mxCell id="qFwq5Oa89XvJzUuIYmLf-16" value="No" style="text;html=1;align=center;verticalAlign=middle;resizable=0;points=[];autosize=1;strokeColor=none;fillColor=none;fontSize=15;" vertex="1" parent="WIyWlLk6GJQsqaUBKTNV-1">
          <mxGeometry x="575" y="996" width="52" height="39" as="geometry" />
        </mxCell>
        <mxCell id="qFwq5Oa89XvJzUuIYmLf-17" value="Yes" style="text;html=1;align=center;verticalAlign=middle;resizable=0;points=[];autosize=1;strokeColor=none;fillColor=none;fontSize=15;" vertex="1" parent="WIyWlLk6GJQsqaUBKTNV-1">
          <mxGeometry x="674" y="1058" width="52" height="39" as="geometry" />
        </mxCell>
        <mxCell id="qFwq5Oa89XvJzUuIYmLf-28" style="edgeStyle=orthogonalEdgeStyle;rounded=0;orthogonalLoop=1;jettySize=auto;html=1;exitX=0.5;exitY=1;exitDx=0;exitDy=0;fontSize=15;" edge="1" parent="WIyWlLk6GJQsqaUBKTNV-1" source="qFwq5Oa89XvJzUuIYmLf-23">
          <mxGeometry relative="1" as="geometry">
            <mxPoint x="980" y="810" as="targetPoint" />
          </mxGeometry>
        </mxCell>
        <mxCell id="qFwq5Oa89XvJzUuIYmLf-35" style="edgeStyle=orthogonalEdgeStyle;rounded=0;orthogonalLoop=1;jettySize=auto;html=1;exitX=0;exitY=0.5;exitDx=0;exitDy=0;entryX=1;entryY=0.5;entryDx=0;entryDy=0;fontSize=15;" edge="1" parent="WIyWlLk6GJQsqaUBKTNV-1" source="qFwq5Oa89XvJzUuIYmLf-23" target="QjfyHZzFQtqNt90tGOD8-0">
          <mxGeometry relative="1" as="geometry" />
        </mxCell>
        <mxCell id="qFwq5Oa89XvJzUuIYmLf-23" value="Is sistem Armed" style="rhombus;whiteSpace=wrap;html=1;fillColor=#fff2cc;strokeColor=#d6b656;fontSize=15;" vertex="1" parent="WIyWlLk6GJQsqaUBKTNV-1">
          <mxGeometry x="920" y="710" width="120" height="60" as="geometry" />
        </mxCell>
        <mxCell id="qFwq5Oa89XvJzUuIYmLf-27" style="edgeStyle=orthogonalEdgeStyle;rounded=0;orthogonalLoop=1;jettySize=auto;html=1;exitX=0.5;exitY=1;exitDx=0;exitDy=0;entryX=0.5;entryY=0;entryDx=0;entryDy=0;fontSize=15;" edge="1" parent="WIyWlLk6GJQsqaUBKTNV-1" source="qFwq5Oa89XvJzUuIYmLf-26" target="qFwq5Oa89XvJzUuIYmLf-23">
          <mxGeometry relative="1" as="geometry" />
        </mxCell>
        <mxCell id="qFwq5Oa89XvJzUuIYmLf-26" value="Toggle System Armed/Not Armed&lt;div&gt;if present, stop alarm&lt;/div&gt;" style="rounded=1;whiteSpace=wrap;html=1;fillColor=#dae8fc;strokeColor=#6c8ebf;fontSize=15;" vertex="1" parent="WIyWlLk6GJQsqaUBKTNV-1">
          <mxGeometry x="880" y="620" width="200" height="60" as="geometry" />
        </mxCell>
        <mxCell id="qFwq5Oa89XvJzUuIYmLf-29" value="Yes" style="text;html=1;align=center;verticalAlign=middle;resizable=0;points=[];autosize=1;strokeColor=none;fillColor=none;fontSize=15;" vertex="1" parent="WIyWlLk6GJQsqaUBKTNV-1">
          <mxGeometry x="974" y="765" width="52" height="39" as="geometry" />
        </mxCell>
        <mxCell id="qFwq5Oa89XvJzUuIYmLf-36" value="No" style="text;html=1;align=center;verticalAlign=middle;resizable=0;points=[];autosize=1;strokeColor=none;fillColor=none;fontSize=15;" vertex="1" parent="WIyWlLk6GJQsqaUBKTNV-1">
          <mxGeometry x="865" y="736" width="52" height="39" as="geometry" />
        </mxCell>
        <mxCell id="qFwq5Oa89XvJzUuIYmLf-40" style="edgeStyle=orthogonalEdgeStyle;rounded=0;orthogonalLoop=1;jettySize=auto;html=1;exitX=0.5;exitY=1;exitDx=0;exitDy=0;entryX=1;entryY=0.5;entryDx=0;entryDy=0;fontSize=15;" edge="1" parent="WIyWlLk6GJQsqaUBKTNV-1" source="qFwq5Oa89XvJzUuIYmLf-38" target="vyWj3N0okevLtlT6nMNN-8">
          <mxGeometry relative="1" as="geometry">
            <Array as="points">
              <mxPoint x="980" y="1172" />
              <mxPoint x="830" y="1172" />
              <mxPoint x="830" y="862" />
            </Array>
          </mxGeometry>
        </mxCell>
        <mxCell id="qFwq5Oa89XvJzUuIYmLf-48" style="edgeStyle=orthogonalEdgeStyle;rounded=0;orthogonalLoop=1;jettySize=auto;html=1;exitX=0;exitY=0.5;exitDx=0;exitDy=0;entryX=0;entryY=0.5;entryDx=0;entryDy=0;fontSize=15;" edge="1" parent="WIyWlLk6GJQsqaUBKTNV-1" source="qFwq5Oa89XvJzUuIYmLf-38" target="vyWj3N0okevLtlT6nMNN-9">
          <mxGeometry relative="1" as="geometry" />
        </mxCell>
        <mxCell id="qFwq5Oa89XvJzUuIYmLf-38" value="Is B&amp;nbsp;&lt;div&gt;pressed&lt;/div&gt;" style="rhombus;whiteSpace=wrap;html=1;fillColor=#fff2cc;strokeColor=#d6b656;fontSize=15;" vertex="1" parent="WIyWlLk6GJQsqaUBKTNV-1">
          <mxGeometry x="920" y="1092" width="120" height="60" as="geometry" />
        </mxCell>
        <mxCell id="qFwq5Oa89XvJzUuIYmLf-42" value="No" style="text;html=1;align=center;verticalAlign=middle;resizable=0;points=[];autosize=1;strokeColor=none;fillColor=none;fontSize=15;" vertex="1" parent="WIyWlLk6GJQsqaUBKTNV-1">
          <mxGeometry x="1055" y="904" width="52" height="39" as="geometry" />
        </mxCell>
        <mxCell id="qFwq5Oa89XvJzUuIYmLf-44" value="Yes" style="text;html=1;align=center;verticalAlign=middle;resizable=0;points=[];autosize=1;strokeColor=none;fillColor=none;fontSize=15;" vertex="1" parent="WIyWlLk6GJQsqaUBKTNV-1">
          <mxGeometry x="974" y="957" width="52" height="39" as="geometry" />
        </mxCell>
        <mxCell id="qFwq5Oa89XvJzUuIYmLf-47" value="Yes" style="text;html=1;align=center;verticalAlign=middle;resizable=0;points=[];autosize=1;strokeColor=none;fillColor=none;fontSize=15;" vertex="1" parent="WIyWlLk6GJQsqaUBKTNV-1">
          <mxGeometry x="864" y="1165" width="52" height="39" as="geometry" />
        </mxCell>
        <mxCell id="qFwq5Oa89XvJzUuIYmLf-49" value="No" style="text;html=1;align=center;verticalAlign=middle;resizable=0;points=[];autosize=1;strokeColor=none;fillColor=none;fontSize=15;" vertex="1" parent="WIyWlLk6GJQsqaUBKTNV-1">
          <mxGeometry x="865" y="1114" width="52" height="39" as="geometry" />
        </mxCell>
        <mxCell id="qFwq5Oa89XvJzUuIYmLf-52" value="&lt;font style=&quot;font-size: 15px;&quot;&gt;Yes&lt;/font&gt;" style="text;html=1;align=center;verticalAlign=middle;resizable=0;points=[];autosize=1;strokeColor=none;fillColor=none;" vertex="1" parent="WIyWlLk6GJQsqaUBKTNV-1">
          <mxGeometry x="735" y="943" width="52" height="39" as="geometry" />
        </mxCell>
      </root>
    </mxGraphModel>
  </diagram>
</mxfile>
